# xmcd
#
# Track frame offsets:
#	150
#	5910
#	17130
#	31310
#	43040
#	49544
#	59634
#	69061
#	83213
#	95037
#	102539
#	119248
#	128459
#	139854
#	147149
#	162075
#	174160
#	185947
#	196163
#	207164
#
# Disc length: 2839 seconds
#
# Revision: 1
# Processed by: cddbd v1.5.1PL0 Copyright (c) Steve Scherf et al.
# Submitted via: audiograbber 1.83.01
#
DISCID=1f0b1514
DTITLE=Orion Jimmy Ellis - Orion's Christmas Gospel
DYEAR=1900
DGENRE=
TTITLE0=Orio's Christmas Greeting
TTITLE1=Jingel Bells
TTITLE2=Where He Leads Me
TTITLE3=Sweet Hour Of Prayer
TTITLE4=Up On The House Top
TTITLE5=I Heard The Bells On Christmas Day
TTITLE6=I Surrender All
TTITLE7=Peace In The Valley
TTITLE8=It Is No Secret
TTITLE9=Deck The Halls
TTITLE10=It Came Upon A Midnight Clear
TTITLE11=I Belive
TTITLE12=He Touched Me
TTITLE13=Joy To The World
TTITLE14=Softly And Tenderly
TTITLE15=Hark The Herald Angels Sing
TTITLE16=Where No One Stands Alone
TTITLE17=Just A Closer Walk With Thee
TTITLE18=Away In A Manger
TTITLE19=We Wish You A Merry Christmas
EXTD=
EXTT0=
EXTT1=
EXTT2=
EXTT3=
EXTT4=
EXTT5=
EXTT6=
EXTT7=
EXTT8=
EXTT9=
EXTT10=
EXTT11=
EXTT12=
EXTT13=
EXTT14=
EXTT15=
EXTT16=
EXTT17=
EXTT18=
EXTT19=
PLAYORDER=
